<svg xmlns="http://www.w3.org/2000/svg"
  xmlns:xlink="http://www.w3.org/1999/xlink" version="1.1" x="0px" y="0px" viewBox="0 0 100 125" style="enable-background:new 0 0 100 100;" xml:space="preserve">
  <g>
    <path d="M52.32,86.68c-21.5,0-39-17.5-39-39c0-13.4,6.82-25.71,17.99-32.86c-2.19,5.1-3.34,10.64-3.34,16.2c0,22.61,18.39,41,41,41   c5.57,0,11.11-1.15,16.2-3.34C78.03,79.86,65.72,86.68,52.32,86.68z"/>
    <path d="M57.38,30.81c0.33-0.05,0.61-0.25,0.75-0.55l4.17-8.44l4.17,8.44c0.15,0.3,0.43,0.5,0.75,0.55l9.32,1.35l-6.74,6.57   c-0.24,0.23-0.34,0.56-0.29,0.89l1.59,9.28l-8.33-4.38c-0.29-0.15-0.64-0.15-0.93,0L53.5,48.9l1.59-9.28   c0.06-0.32-0.05-0.66-0.29-0.89l-6.74-6.57L57.38,30.81z"/>
  </g>
</svg>